<?xml version="1.0" encoding="UTF-8" standalone="no"?>
<svg
   xmlns:dc="http://purl.org/dc/elements/1.1/"
   xmlns:cc="http://creativecommons.org/ns#"
   xmlns:rdf="http://www.w3.org/1999/02/22-rdf-syntax-ns#"
   xmlns:svg="http://www.w3.org/2000/svg"
   xmlns="http://www.w3.org/2000/svg"
   xmlns:xlink="http://www.w3.org/1999/xlink"
   xmlns:sodipodi="http://sodipodi.sourceforge.net/DTD/sodipodi-0.dtd"
   xmlns:inkscape="http://www.inkscape.org/namespaces/inkscape"
   width="210mm"
   height="297mm"
   viewBox="0 0 210 297"
   version="1.1"
   id="svg8"
   inkscape:version="1.0 (4035a4fb49, 2020-05-01)"
   sodipodi:docname="laughing man.svg">
  <defs
     id="defs2" />
  <sodipodi:namedview
     id="base"
     pagecolor="#ffffff"
     bordercolor="#666666"
     borderopacity="1.0"
     inkscape:pageopacity="0.0"
     inkscape:pageshadow="2"
     inkscape:zoom="0.36760334"
     inkscape:cx="435.85436"
     inkscape:cy="618.67064"
     inkscape:document-units="mm"
     inkscape:current-layer="layer1"
     inkscape:document-rotation="0"
     showgrid="false"
     inkscape:window-width="958"
     inkscape:window-height="1008"
     inkscape:window-x="1913"
     inkscape:window-y="0"
     inkscape:window-maximized="1" />
  <metadata
     id="metadata5">
    <rdf:RDF>
      <cc:Work
         rdf:about="">
        <dc:format>image/svg+xml</dc:format>
        <dc:type
           rdf:resource="http://purl.org/dc/dcmitype/StillImage" />
        <dc:title />
      </cc:Work>
    </rdf:RDF>
  </metadata>
  <g
     inkscape:label="Layer 1"
     inkscape:groupmode="layer"
     id="layer1"
     style="display:inline;opacity:1">
    <path
       style="display:inline;fill:#000000;stroke-width:0.264583"
       d="m 101.57646,183.28348 c -8.292652,-1.02162 -15.704342,-4.77138 -21.557062,-10.90627 -9.19474,-9.63802 -12.10555,-22.91315 -7.73881,-35.29387 3.50954,-9.95035 11.53827,-17.99312 21.5531,-21.5908 5.59192,-2.00881 12.561422,-2.50185 18.102492,-1.28062 6.54422,1.44232 12.19054,4.428 16.9633,8.9699 4.82831,4.59476 8.65444,10.96339 10.01098,16.66335 0.32387,1.36084 0.35021,1.38912 1.29638,1.39165 1.30283,0.004 3.44671,1.04075 4.66115,2.25519 1.29757,1.29758 2.2526,3.36907 2.2526,4.88597 0,3.19967 -3.05751,6.48108 -6.6028,7.08631 l -1.1143,0.19022 -1.00151,3.05139 c -3.56064,10.84849 -11.46608,18.99244 -22.17064,22.83955 -4.24207,1.52456 -10.43036,2.25847 -14.65488,1.73803 z m 9.85082,-2.89504 c 11.53533,-2.35075 20.96752,-10.67257 24.56056,-21.66926 0.92321,-2.82551 1.10181,-2.66828 -3.03105,-2.66828 h -3.58564 l -0.29864,0.85989 c -0.70449,2.02848 -2.68148,5.51231 -4.24646,7.48307 -5.34938,6.73643 -14.14976,10.39449 -22.6415,9.41141 -10.732482,-1.2425 -19.265812,-8.6561 -22.145482,-19.23957 -0.23308,-0.85663 -0.49076,-2.90205 -0.57262,-4.54538 l -0.14884,-2.98786 2.22021,0.0775 2.22022,0.0774 0.16058,2.51354 c 0.28386,4.4431 1.60434,7.98343 4.29716,11.52108 8.13599,10.68851 24.260722,11.007 32.896772,0.64975 1.73416,-2.07979 3.55356,-5.60704 4.2134,-8.16847 l 0.48577,-1.88569 7.15129,-0.006 c 6.45266,-0.005 7.25944,-0.0549 8.25823,-0.50838 2.59687,-1.17902 2.59687,-4.67178 0,-5.85079 -1.06647,-0.4842 -2.21198,-0.50278 -31.33558,-0.50838 l -30.228662,-0.006 v -0.61163 c 0,-1.10507 1.07916,-4.7598 1.98327,-6.71663 1.86451,-4.0355 5.36794,-8.13141 9.12923,-10.67313 3.00659,-2.03173 7.32144,-3.63789 11.055982,-4.11547 0.96931,-0.12396 1.47981,-0.33045 1.66296,-0.67267 0.37138,-0.69392 2.45405,-0.69639 2.94264,-0.003 0.21495,0.30485 0.84612,0.56262 1.66864,0.68147 9.17648,1.32601 17.08402,7.3776 20.42257,15.62926 l 0.85638,2.11667 3.58188,0.0736 c 4.14609,0.0852 3.93653,0.28243 2.91938,-2.74762 -1.54313,-4.59691 -4.09844,-8.61483 -7.91183,-12.44042 -6.30273,-6.32289 -13.88785,-9.45521 -22.91108,-9.46127 -3.91061,-0.003 -6.302202,0.37546 -10.000342,1.58095 -11.29347,3.68136 -19.86946,13.51519 -21.87197,25.07992 -0.52733,3.04541 -0.5264,8.719 0.002,11.57778 1.16524,6.30539 4.06985,12.0141 8.45001,16.60764 4.73807,4.96889 10.51408,8.1739 17.20266,9.54546 3.425612,0.70246 9.139932,0.70228 12.587992,-2.6e-4 z m -9.94216,-14.13282 c -5.058812,-0.99984 -9.350822,-3.83049 -12.020082,-7.92742 -1.13187,-1.73728 -2.38397,-4.83088 -2.39413,-5.91532 l -0.006,-0.59531 h 17.864432 17.86442 l -0.17301,0.7276 c -0.92253,3.87978 -2.9699,7.2604 -5.85661,9.67043 -1.77781,1.48424 -5.08609,3.18164 -7.34192,3.76694 -2.26459,0.58759 -5.74107,0.70719 -7.93752,0.27308 z m 6.6146,-3.9899 c 2.72451,-0.57456 5.02421,-1.80732 6.94532,-3.72305 0.97629,-0.97357 1.65364,-1.87581 1.65364,-2.20269 0,-0.55363 -7.9e-4,-0.55366 -11.90625,-0.55366 -10.070002,0 -11.906272,0.0575 -11.906272,0.37311 0,0.67178 2.02663,2.95527 3.47589,3.91643 3.52534,2.33803 7.509942,3.08142 11.737672,2.18986 z M 91.118558,149.87474 c 0.3898,-2.56003 3.15259,-4.30916 5.7161,-3.61888 1.36219,0.3668 2.81145,1.7951 3.226252,3.17959 0.37122,1.23901 0.1352,1.67881 -0.451442,0.84126 -0.67814,-0.96819 -2.45528,-1.71768 -4.07862,-1.72014 -1.63091,-0.002 -2.36749,0.29979 -3.67205,1.50681 l -0.89507,0.82814 z m 27.162382,0.20387 c -1.96474,-2.13206 -5.24948,-2.24527 -7.60153,-0.26199 -0.85351,0.71969 -0.85989,0.72065 -0.85989,0.12948 0,-1.09501 1.238,-2.80272 2.46104,-3.39479 2.66802,-1.29156 5.6117,-0.0443 6.54101,2.77155 0.42744,1.29516 0.2216,1.58289 -0.54063,0.75575 z m 6.50064,-9.83656 c -0.34441,-1.41946 -2.41958,-4.67164 -4.19918,-6.58094 -4.14412,-4.44613 -9.43358,-6.71438 -15.65768,-6.71438 -5.950822,0 -10.816952,1.95574 -15.038982,6.04427 -2.19351,2.12416 -4.93707,6.33251 -4.93707,7.57298 0,0.36093 2.20636,0.40567 20.004742,0.40567 h 20.00472 z"
       id="path877"
       inkscape:export-xdpi="338.66827"
       inkscape:export-ydpi="338.66827" />
    <text
       xml:space="preserve"
       style="font-style:normal;font-variant:normal;font-weight:normal;font-stretch:normal;font-size:4.93889px;line-height:1.25;font-family:'Cooper Black';-inkscape-font-specification:'Cooper Black, Normal';font-variant-ligatures:normal;font-variant-caps:normal;font-variant-numeric:normal;font-variant-east-asian:normal;letter-spacing:0px;word-spacing:0px;display:inline;stroke-width:0.264583"
       id="text881"><textPath
         xlink:href="#path883"
         id="textPath891"><tspan
           style="font-style:normal;font-variant:normal;font-weight:normal;font-stretch:normal;font-size:4.93889px;font-family:'Cooper Black';-inkscape-font-specification:'Cooper Black, Normal';font-variant-ligatures:normal;font-variant-caps:normal;font-variant-numeric:normal;font-variant-east-asian:normal;stroke-width:0.264583"
           id="tspan879">I thought what I'd do was, I'd pretend I was one of those deaf-mutes</tspan></textPath></text>
    <circle
       style="display:none;fill:#0000ff;stroke:#ffffff;stroke-width:0.197058"
       id="path883"
       cx="105"
       cy="148.5"
       r="27.770262" />
  </g>
</svg>
